PathFileType	4	(X/Y/Z)	OpenSim_Sub02_CSBaseline_Magnet.trc
DataRate	CameraRate	NumFrames	NumMarkers	Units	OrigDataRate	OrigDataStartFrame	OrigNumFrames
100	100	37	8	m	100	1	7057
Frame#	Time	torso_imu_offset_imu	pelvis_imu_offset_imu	tibia_r_imu_offset_imu	femur_r_imu_offset_imu	tibia_l_imu_offset_imu	femur_l_imu_offset_imu	toes_r_imu_offset_imu	toes_l_imu_offset_imu
				X1	Y1	Z1	X2	Y2	Z2	X3	Y3	Z3	X4	Y4	Z4	X5	Y5	Z5	X6	Y6	Z6	X7	Y7	Z7	X8		Y8	Z8	

1	0	-0.92431635	-0.24823416	0.00801566	-0.68879174	0.26527086	-0.58237609	-0.50480746	-0.53894263	-0.41077532	-0.75759047	-0.39174699	0.01196130	-0.64303215	0.53582253	-0.02081510	-0.62364445	0.21455158	0.22194085	-0.52216766	-0.45136182	-0.49440297	-0.63414456	-0.15722379	-0.51666834
2	0.01000000	-0.92293335	-0.24825140	0.01023188	-0.69122175	0.25968364	-0.58417099	-0.50494622	-0.54403884	-0.40664454	-0.75450068	-0.39375071	0.00687578	-0.64602070	0.53696886	-0.01298977	-0.62604261	0.20969837	0.22996894	-0.52641350	-0.45087010	-0.48950793	-0.63253660	-0.15596608	-0.51921501
3	0.02000000	-0.92847117	-0.24497381	0.01242920	-0.69086104	0.25969596	-0.58192269	-0.50269660	-0.54398993	-0.40026443	-0.75785613	-0.39592353	0.00744446	-0.64155998	0.53610689	-0.01496531	-0.62436629	0.20919848	0.23584702	-0.52451180	-0.44734515	-0.49292027	-0.63665756	-0.15150618	-0.51895621
4	0.03000000	-0.92293152	-0.24868076	0.01173826	-0.69280468	0.26333997	-0.58646757	-0.50664964	-0.53798278	-0.40935353	-0.75749373	-0.39120160	0.00830400	-0.64439558	0.53259531	-0.01877354	-0.62657581	0.21135262	0.22592217	-0.52538152	-0.44568144	-0.49379525	-0.63076460	-0.15522232	-0.52189692
5	0.04000000	-0.92314319	-0.24739683	0.01557350	-0.68660906	0.27051711	-0.58892433	-0.50252233	-0.54275960	-0.40301428	-0.75548004	-0.39061771	0.00840925	-0.64175305	0.53862626	-0.01469718	-0.62250878	0.21021239	0.22236792	-0.52958521	-0.44902764	-0.49036025	-0.63331449	-0.15678455	-0.51312547
6	0.05000000	-0.91996392	-0.24335595	0.01143595	-0.68460195	0.26246806	-0.58327160	-0.50019289	-0.54145464	-0.40016856	-0.75850634	-0.39352806	0.00619243	-0.64449484	0.53444639	-0.01410755	-0.62000042	0.20934391	0.22344037	-0.52887380	-0.44649952	-0.48842228	-0.63480082	-0.14726928	-0.52422403
7	0.06000000	-0.92892506	-0.24817443	0.01268342	-0.68402942	0.26035393	-0.58234848	-0.50277842	-0.53918196	-0.40277161	-0.75233606	-0.39744494	0.01422141	-0.64111021	0.53520279	-0.01379518	-0.62196055	0.21112085	0.22706807	-0.53125082	-0.44782324	-0.49291349	-0.63781664	-0.15177516	-0.51910576
8	0.07000000	-0.92803740	-0.24620456	0.01686596	-0.69287465	0.26390829	-0.58568152	-0.50106253	-0.53813185	-0.39944279	-0.74654146	-0.39881713	0.01271609	-0.64289374	0.54165038	-0.01796806	-0.61903194	0.21113047	0.22512824	-0.52786279	-0.44841543	-0.48998693	-0.63483499	-0.15181168	-0.51957857
9	0.08000000	-0.92459095	-0.24154089	0.01228929	-0.69410431	0.26668952	-0.58654137	-0.50166941	-0.54079780	-0.40534141	-0.74804905	-0.39805556	0.00755933	-0.64175162	0.54222217	-0.01818501	-0.61724780	0.20993251	0.23432824	-0.52984603	-0.44761949	-0.48542585	-0.63195386	-0.15122233	-0.52303131
10	0.09000000	-0.92587869	-0.24269785	0.01254933	-0.68769557	0.26275881	-0.58507420	-0.50581738	-0.54228991	-0.40354141	-0.75612045	-0.39548491	0.01097361	-0.64205740	0.53881986	-0.01928353	-0.61839533	0.21080421	0.22928266	-0.53091188	-0.44844172	-0.48877087	-0.63292643	-0.15569629	-0.51917489
11	0.10000000	-0.92718483	-0.24756984	0.00957520	-0.69185671	0.26073108	-0.58688404	-0.50075514	-0.54127193	-0.40054694	-0.75552208	-0.39555856	0.01250117	-0.63943337	0.53565225	-0.01257874	-0.62377923	0.21473860	0.22017893	-0.53445693	-0.44439020	-0.49014394	-0.63661905	-0.15307674	-0.51963078
12	0.11000000	-0.92680781	-0.24890118	0.00974813	-0.68922160	0.26185387	-0.58282966	-0.50022404	-0.54049454	-0.40595094	-0.75129643	-0.39886092	0.01145084	-0.64307069	0.53535295	-0.00840869	-0.62655740	0.21081764	0.22159536	-0.53006991	-0.44588201	-0.48983320	-0.63052880	-0.15152769	-0.52266965
13	0.12000000	-0.92765524	-0.25408249	0.01321263	-0.69010877	0.26126908	-0.57966306	-0.50321044	-0.54173359	-0.40423921	-0.75466938	-0.39490295	0.01034136	-0.64052387	0.53367832	-0.01058608	-0.62250618	0.21377484	0.22151911	-0.52923998	-0.44656956	-0.48995355	-0.63434890	-0.15384469	-0.52063522
14	0.13000000	-0.92923207	-0.24980258	0.01025662	-0.68840668	0.26401675	-0.57955708	-0.50245980	-0.53972065	-0.40429652	-0.75784934	-0.39246311	0.01213645	-0.64080140	0.53760329	-0.01161325	-0.62059832	0.21208012	0.22478484	-0.52999564	-0.44521605	-0.48936927	-0.63484695	-0.15111732	-0.51906578
15	0.14000000	-0.92991622	-0.24752659	0.01197383	-0.68520814	0.25883034	-0.57687737	-0.49772587	-0.54034041	-0.39942677	-0.75099823	-0.39537365	0.01279660	-0.64154385	0.53972698	-0.01633409	-0.62514586	0.21218446	0.22482552	-0.52809919	-0.44783602	-0.48782954	-0.63331478	-0.15477755	-0.51789843
16	0.15000000	-0.93082725	-0.25004324	0.01085465	-0.68879408	0.25958883	-0.58369398	-0.50022128	-0.54339633	-0.40465885	-0.75033227	-0.39660728	0.01448430	-0.64283331	0.53914941	-0.01785998	-0.62280008	0.21480201	0.22032339	-0.53563698	-0.44954038	-0.49106872	-0.63623835	-0.15232650	-0.52189008
17	0.16000000	-0.92498744	-0.24804949	0.00771941	-0.68839218	0.26201228	-0.59118561	-0.49587452	-0.54608716	-0.40169607	-0.74989025	-0.39643135	0.01500256	-0.64062618	0.54212400	-0.02078460	-0.62002792	0.21456216	0.22274335	-0.52911772	-0.44794076	-0.49448971	-0.63376392	-0.15213872	-0.51542552
18	0.17000000	-0.92407277	-0.24948724	0.01239160	-0.68588655	0.26110780	-0.58711174	-0.49529284	-0.54349526	-0.40082117	-0.75168279	-0.39657131	0.01709675	-0.64155284	0.53637041	-0.02134006	-0.62305164	0.21563267	0.22560602	-0.52866744	-0.44435647	-0.49338405	-0.63257424	-0.14999776	-0.51537127
19	0.18000000	-0.92592629	-0.25175743	0.00453198	-0.69068447	0.26461550	-0.58848253	-0.50391417	-0.54108719	-0.40537641	-0.75351402	-0.39618741	0.01684885	-0.64305625	0.53800595	-0.01501108	-0.62495351	0.21286475	0.22363184	-0.52625315	-0.44597724	-0.49208507	-0.63801683	-0.15102912	-0.51523722
20	0.19000000	-0.92420059	-0.24525578	0.00133406	-0.68793838	0.26549009	-0.58449620	-0.50239215	-0.54514501	-0.40073704	-0.75047657	-0.39769513	0.01652451	-0.63961339	0.54629090	-0.01567330	-0.62240383	0.21927591	0.22712634	-0.53033481	-0.44955235	-0.49057552	-0.63938641	-0.15288719	-0.51711058
21	0.20000000	-0.92912499	-0.24532985	-0.00127382	-0.68712740	0.26432770	-0.58813367	-0.49666436	-0.55232718	-0.40564271	-0.75148800	-0.40066686	0.01341225	-0.63659310	0.54164652	-0.02180516	-0.61802042	0.21619784	0.22661284	-0.52969415	-0.44874927	-0.48860151	-0.63967006	-0.15270628	-0.51549781
22	0.21000000	-0.92346910	-0.24340842	-0.00204394	-0.69106597	0.26290828	-0.58829565	-0.49432500	-0.54329041	-0.40552105	-0.74730874	-0.39783174	0.01342852	-0.64003379	0.53677144	-0.01704321	-0.61895517	0.21861336	0.22414195	-0.52959860	-0.45027661	-0.49192196	-0.63455291	-0.15262697	-0.51489826
23	0.22000000	-0.92367406	-0.25105786	-0.00021114	-0.68826237	0.26973020	-0.58858226	-0.49217623	-0.54074217	-0.40001639	-0.74961084	-0.39611709	0.01670314	-0.63968037	0.54362226	-0.02093195	-0.61640078	0.21714071	0.22855819	-0.53067418	-0.45280664	-0.48935567	-0.63922591	-0.14808043	-0.50987203
24	0.23000000	-0.92813040	-0.24411697	-0.00325729	-0.69241249	0.26151719	-0.59010185	-0.49682827	-0.54490272	-0.40633736	-0.75268503	-0.39746988	0.01408305	-0.63791299	0.54612840	-0.02215627	-0.62500647	0.22491423	0.22819643	-0.53043517	-0.45174357	-0.49469860	-0.63312476	-0.14524422	-0.52069125
25	0.24000000	-0.92557054	-0.24535364	-0.00527874	-0.68720494	0.26169497	-0.58383957	-0.49738596	-0.54760420	-0.40222826	-0.75241465	-0.40175022	0.01474257	-0.64011166	0.54835728	-0.01864958	-0.62561862	0.22446336	0.22663350	-0.52868049	-0.45188869	-0.49539356	-0.63594524	-0.14991146	-0.51277981
26	0.25000000	-0.92388436	-0.24517048	-0.00741602	-0.68388023	0.26193149	-0.58374697	-0.49447199	-0.54953761	-0.40178827	-0.75562575	-0.40250498	0.01475097	-0.63321027	0.54406964	-0.01574250	-0.61872193	0.22568385	0.21884137	-0.53092064	-0.44586571	-0.48838281	-0.63592869	-0.14595440	-0.51886366
27	0.26000000	-0.92669022	-0.24460712	-0.01003440	-0.68791541	0.26617693	-0.58348483	-0.49365647	-0.54579852	-0.40329316	-0.75466616	-0.39976671	0.01414156	-0.63520362	0.54493932	-0.01837046	-0.61939052	0.22533517	0.21780298	-0.52459156	-0.44903295	-0.49420495	-0.63464898	-0.14834395	-0.52202971
28	0.27000000	-0.92202592	-0.24245419	-0.01099875	-0.68411308	0.26207124	-0.58647443	-0.49672821	-0.54554975	-0.40042068	-0.75026438	-0.39891194	0.01675536	-0.63679793	0.54418173	-0.01688819	-0.62269404	0.22712438	0.22061025	-0.52681219	-0.45299183	-0.49143780	-0.63546310	-0.14436605	-0.51855274
29	0.28000000	-0.92394388	-0.24390900	-0.00938477	-0.68421432	0.26642882	-0.58598666	-0.49683285	-0.54914392	-0.40271145	-0.75190722	-0.40153927	0.02107135	-0.63656477	0.54175079	-0.01596888	-0.61891024	0.22576643	0.22084033	-0.53086317	-0.45157623	-0.49144842	-0.63985534	-0.14651646	-0.51497223
30	0.29000000	-0.92866760	-0.24396662	-0.01207657	-0.68432971	0.26801934	-0.58825733	-0.49213564	-0.55683425	-0.40414088	-0.74996999	-0.40271997	0.01622079	-0.63576462	0.54462701	-0.02230088	-0.61528722	0.22973004	0.22451669	-0.53591723	-0.45248494	-0.48969398	-0.63473097	-0.15210425	-0.51267753
31	0.30000000	-0.92782548	-0.24144427	-0.01424566	-0.68181410	0.26407391	-0.58048256	-0.49106722	-0.55092144	-0.40227686	-0.74885432	-0.40392476	0.01815854	-0.63031803	0.54845120	-0.02298584	-0.61736868	0.22338168	0.21845849	-0.53621079	-0.45259638	-0.48894591	-0.63645267	-0.14926276	-0.52176438
32	0.31000000	-0.92199495	-0.24150223	-0.01684335	-0.68613320	0.26448709	-0.58136725	-0.49153135	-0.55125424	-0.40402839	-0.74589065	-0.40678534	0.01878430	-0.62864229	0.54450073	-0.01771390	-0.62027845	0.22373031	0.22258261	-0.52825094	-0.45774539	-0.48846157	-0.63797240	-0.15065642	-0.51427428
33	0.32000000	-0.92418921	-0.24084622	-0.01742433	-0.68542762	0.26505450	-0.58508612	-0.48996132	-0.55110998	-0.39881104	-0.74875538	-0.40383683	0.01800646	-0.63263366	0.54782918	-0.02060259	-0.61747478	0.22666040	0.22212920	-0.53107444	-0.45803150	-0.49203678	-0.63818597	-0.14360046	-0.51685464
34	0.33000000	-0.92807154	-0.24711680	-0.01600253	-0.68537900	0.26723389	-0.58505840	-0.48716071	-0.54987567	-0.40026346	-0.74649760	-0.40316741	0.02187142	-0.63329491	0.54932783	-0.02068146	-0.61536153	0.23283297	0.21873046	-0.53342597	-0.45774845	-0.49216845	-0.63770820	-0.14584962	-0.51296088
35	0.34000000	-0.92936203	-0.24234229	-0.01837733	-0.68157086	0.26478690	-0.58762454	-0.48932443	-0.55365270	-0.40111460	-0.74434847	-0.40534729	0.02248244	-0.63743052	0.54847860	-0.02290444	-0.61390912	0.22709604	0.22226463	-0.53186440	-0.45282172	-0.48982836	-0.63933634	-0.14449797	-0.52305003
36	0.35000000	-0.93036041	-0.24248846	-0.02287582	-0.68000997	0.26036718	-0.58453891	-0.48946540	-0.55146819	-0.40713667	-0.74831153	-0.40824448	0.02301897	-0.63573016	0.54654092	-0.02165389	-0.61716741	0.22679437	0.22311138	-0.53440621	-0.45650992	-0.48682694	-0.64327069	-0.14426721	-0.52065763
37	0.36000000	-0.93032730	-0.24109133	-0.02465873	-0.68286722	0.26301793	-0.58534010	-0.48764990	-0.55702901	-0.39900612	-0.74779962	-0.41159672	0.01894427	-0.63537121	0.54742061	-0.02065646	-0.61699987	0.22909867	0.22015308	-0.53669717	-0.45634410	-0.49142539	-0.64198555	-0.14040125	-0.51208672
